<svg xmlns="http://www.w3.org/2000/svg" viewBox="0 0 100 120" fill="none">
  <!-- Porsche crest outline -->
  <path d="M50 4 L92 20 L92 80 Q92 110 50 118 Q8 110 8 80 L8 20 Z" stroke="white" stroke-width="2.5" fill="none"/>
  <!-- Horizontal divider -->
  <line x1="8" y1="50" x2="92" y2="50" stroke="white" stroke-width="2"/>
  <!-- Vertical divider -->
  <line x1="50" y1="20" x2="50" y2="118" stroke="white" stroke-width="2"/>
  <!-- Rearing horse (simplified silhouette) -->
  <path d="M50 26 C46 28 43 32 44 36 C42 34 40 35 40 38 C41 41 44 42 46 40 C46 44 44 48 44 50 L50 50 C50 47 51 44 52 42 C54 43 56 42 57 40 C58 37 56 34 54 35 C55 32 54 28 50 26 Z" fill="white"/>
  <!-- PORSCHE text -->
  <text x="50" y="68" font-family="'Helvetica Neue',Arial,sans-serif" font-size="8" font-weight="800" fill="white" text-anchor="middle" letter-spacing="1.5">PORSCHE</text>
  <!-- Stripes in bottom quarters (left side) -->
  <line x1="14" y1="55" x2="46" y2="55" stroke="white" stroke-width="6" opacity="0.5"/>
  <line x1="14" y1="68" x2="46" y2="68" stroke="white" stroke-width="6" opacity="0.5"/>
</svg>
